# xmcd
#
# Track frame offsets: 
#        150
#        14632
#        28457
#        44495
#        64742
#        79167
#        98307
#        112115
#        130150
#        148055
#        165627
#        197097
#
# Disc length: 3367 seconds
#
# Revision: 3
# Processed by: cddbd v1.5.1PL0 Copyright (c) Steve Scherf et al.
# Submitted via: ExactAudioCopy v0.95b1
#
DISCID=aa0d250c
DTITLE=Mindy McCready - If I Don't Stay The Night
DYEAR=1997
DGENRE=Country
TTITLE0=What If I Do
TTITLE1=This Is Me
TTITLE2=If I Don't Stay The Night
TTITLE3=Cross Against The Moon
TTITLE4=For A Good Time Call
TTITLE5=Oh Romeo
TTITLE6=The Other Side of This Kiss
TTITLE7=You'll Never Know
TTITLE8=Fine Art of Holding A Woman
TTITLE9=Only A Whisper
TTITLE10=Long, Long Time
TTITLE11=unknown
EXTD=ID3G: 2
EXTT0=
EXTT1=
EXTT2=
EXTT3=
EXTT4=
EXTT5=
EXTT6=
EXTT7=
EXTT8=
EXTT9=
EXTT10=
EXTT11=
PLAYORDER=
